<?xml version="1.0" encoding="UTF-8"?>
<svg id="Layer_1" data-name="Layer 1" xmlns="http://www.w3.org/2000/svg" xmlns:xlink="http://www.w3.org/1999/xlink" viewBox="0 0 3600 1884">
  <defs>
    <style>
      .cls-1 {
        fill: #369094;
      }

      .cls-2 {
        fill: #ff9f9c;
      }

      .cls-3 {
        fill: #535073;
      }

      .cls-4 {
        fill: #bfbecf;
      }

      .cls-5 {
        fill: #ff7b78;
      }

      .cls-6 {
        opacity: .75;
      }

      .cls-6, .cls-7 {
        fill: #ff6b66;
      }

      .cls-8 {
        fill: #fff;
      }

      .cls-9, .cls-10, .cls-11, .cls-12 {
        fill: none;
      }

      .cls-13 {
        fill: #acaac2;
      }

      .cls-14 {
        clip-path: url(#clippath-1);
      }

      .cls-15 {
        fill: #ff8885;
      }

      .cls-16 {
        fill: #f2f2f2;
      }

      .cls-17 {
        fill: #292b3b;
      }

      .cls-18 {
        fill: #e8d7c3;
      }

      .cls-19 {
        fill: #ff6966;
      }

      .cls-20 {
        fill: #33364a;
      }

      .cls-21 {
        fill: #e0cdb6;
      }

      .cls-22 {
        fill: #3b3e54;
      }

      .cls-23 {
        fill: #d1bea7;
      }

      .cls-24 {
        fill: #73768c;
      }

      .cls-10 {
        stroke: #fff;
        stroke-miterlimit: 10;
        stroke-width: 2.25px;
      }

      .cls-25 {
        fill: #fe5e5a;
      }

      .cls-26 {
        fill: #ab9b89;
      }

      .cls-11 {
        stroke-width: 15px;
      }

      .cls-11, .cls-12 {
        stroke: #3b3e54;
        stroke-linecap: round;
        stroke-linejoin: round;
      }

      .cls-27 {
        fill: #2f7d80;
      }

      .cls-28 {
        fill: #68648f;
      }

      .cls-12 {
        stroke-width: 9.39px;
      }

      .cls-29 {
        fill: #5e6175;
      }

      .cls-30 {
        fill: #1a1c2e;
      }

      .cls-31 {
        fill: #d4d4d4;
      }

      .cls-32 {
        clip-path: url(#clippath);
      }

      .cls-33 {
        fill: #21243b;
      }
    </style>
    <clipPath id="clippath">
      <rect class="cls-9" width="3600" height="1883.99"/>
    </clipPath>
    <clipPath id="clippath-1">
      <path class="cls-6" d="M2013.93,821.64s-34.36-125.51-159.48-151.91c-201.6-42.53-322.93-262.79-193.95-431.68,136.02-178.12,375.34-120.29,392.6,1.35,17.27,121.64-92.83,212.45-40.84,324.46,51.99,112.01,12.99,223.82,1.67,257.77Z"/>
    </clipPath>
  </defs>
  <g>
    <rect class="cls-18" y="0" width="3600" height="1883.99"/>
    <g class="cls-32">
      <g>
        <line class="cls-10" x1="1973.85" y1="-1929.62" x2="-1000.33" y2="1044.54"/>
        <line class="cls-10" x1="1996.96" y1="-1906.52" x2="-977.23" y2="1067.65"/>
        <line class="cls-10" x1="2020.06" y1="-1883.42" x2="-954.13" y2="1090.75"/>
        <line class="cls-10" x1="2043.16" y1="-1860.31" x2="-931.02" y2="1113.85"/>
        <line class="cls-10" x1="2066.27" y1="-1837.21" x2="-907.92" y2="1136.96"/>
        <line class="cls-10" x1="2089.37" y1="-1814.11" x2="-884.82" y2="1160.06"/>
        <line class="cls-10" x1="2112.47" y1="-1791" x2="-861.72" y2="1183.16"/>
        <line class="cls-10" x1="2135.57" y1="-1767.9" x2="-838.61" y2="1206.26"/>
        <line class="cls-10" x1="2158.68" y1="-1744.8" x2="-815.51" y2="1229.37"/>
        <line class="cls-10" x1="2181.78" y1="-1721.7" x2="-792.41" y2="1252.47"/>
        <line class="cls-10" x1="2204.88" y1="-1698.59" x2="-769.3" y2="1275.57"/>
        <line class="cls-10" x1="2227.99" y1="-1675.49" x2="-746.2" y2="1298.68"/>
        <line class="cls-10" x1="2251.09" y1="-1652.39" x2="-723.1" y2="1321.78"/>
        <line class="cls-10" x1="2274.19" y1="-1629.28" x2="-699.99" y2="1344.88"/>
        <line class="cls-10" x1="2297.3" y1="-1606.18" x2="-676.89" y2="1367.98"/>
        <line class="cls-10" x1="2320.4" y1="-1583.08" x2="-653.79" y2="1391.09"/>
        <line class="cls-10" x1="2343.5" y1="-1559.98" x2="-630.69" y2="1414.19"/>
        <line class="cls-10" x1="2366.6" y1="-1536.87" x2="-607.58" y2="1437.29"/>
        <line class="cls-10" x1="2389.71" y1="-1513.77" x2="-584.48" y2="1460.4"/>
        <line class="cls-10" x1="2412.81" y1="-1490.67" x2="-561.38" y2="1483.5"/>
        <line class="cls-10" x1="2435.91" y1="-1467.56" x2="-538.27" y2="1506.6"/>
        <line class="cls-10" x1="2459.02" y1="-1444.46" x2="-515.17" y2="1529.7"/>
        <line class="cls-10" x1="2482.12" y1="-1421.36" x2="-492.07" y2="1552.81"/>
        <line class="cls-10" x1="2505.22" y1="-1398.26" x2="-468.96" y2="1575.91"/>
        <line class="cls-10" x1="2528.33" y1="-1375.15" x2="-445.86" y2="1599.01"/>
        <line class="cls-10" x1="2551.43" y1="-1352.05" x2="-422.76" y2="1622.11"/>
        <line class="cls-10" x1="2574.53" y1="-1328.95" x2="-399.65" y2="1645.22"/>
        <line class="cls-10" x1="2597.63" y1="-1305.84" x2="-376.55" y2="1668.32"/>
        <line class="cls-10" x1="2620.74" y1="-1282.74" x2="-353.45" y2="1691.42"/>
        <line class="cls-10" x1="2643.84" y1="-1259.64" x2="-330.35" y2="1714.53"/>
        <line class="cls-10" x1="2666.94" y1="-1236.54" x2="-307.24" y2="1737.63"/>
        <line class="cls-10" x1="2690.05" y1="-1213.43" x2="-284.14" y2="1760.73"/>
        <line class="cls-10" x1="2713.15" y1="-1190.33" x2="-261.04" y2="1783.83"/>
        <line class="cls-10" x1="2736.25" y1="-1167.23" x2="-237.93" y2="1806.94"/>
        <line class="cls-10" x1="2759.36" y1="-1144.12" x2="-214.83" y2="1830.04"/>
        <line class="cls-10" x1="2782.46" y1="-1121.02" x2="-191.73" y2="1853.14"/>
        <line class="cls-10" x1="2805.56" y1="-1097.92" x2="-168.63" y2="1876.25"/>
        <line class="cls-10" x1="2828.66" y1="-1074.82" x2="-145.52" y2="1899.35"/>
        <line class="cls-10" x1="2851.77" y1="-1051.71" x2="-122.42" y2="1922.45"/>
        <line class="cls-10" x1="2874.87" y1="-1028.61" x2="-99.32" y2="1945.55"/>
        <line class="cls-10" x1="2897.97" y1="-1005.51" x2="-76.21" y2="1968.66"/>
        <line class="cls-10" x1="2921.08" y1="-982.4" x2="-53.11" y2="1991.76"/>
        <line class="cls-10" x1="2944.18" y1="-959.3" x2="-30.01" y2="2014.86"/>
        <line class="cls-10" x1="2967.28" y1="-936.2" x2="-6.9" y2="2037.97"/>
        <line class="cls-10" x1="2990.39" y1="-913.1" x2="16.2" y2="2061.07"/>
        <line class="cls-10" x1="3013.49" y1="-889.99" x2="39.3" y2="2084.17"/>
        <line class="cls-10" x1="3036.59" y1="-866.89" x2="62.4" y2="2107.27"/>
        <line class="cls-10" x1="3059.69" y1="-843.79" x2="85.51" y2="2130.38"/>
        <line class="cls-10" x1="3082.8" y1="-820.69" x2="108.61" y2="2153.48"/>
        <line class="cls-10" x1="3105.9" y1="-797.58" x2="131.71" y2="2176.58"/>
        <line class="cls-10" x1="3129" y1="-774.48" x2="154.82" y2="2199.69"/>
        <line class="cls-10" x1="3152.11" y1="-751.38" x2="177.92" y2="2222.79"/>
        <line class="cls-10" x1="3175.21" y1="-728.27" x2="201.02" y2="2245.89"/>
        <line class="cls-10" x1="3198.31" y1="-705.17" x2="224.13" y2="2268.99"/>
        <line class="cls-10" x1="3221.42" y1="-682.07" x2="247.23" y2="2292.1"/>
        <line class="cls-10" x1="3244.52" y1="-658.97" x2="270.33" y2="2315.2"/>
        <line class="cls-10" x1="3267.62" y1="-635.86" x2="293.43" y2="2338.3"/>
        <line class="cls-10" x1="3290.72" y1="-612.76" x2="316.54" y2="2361.41"/>
        <line class="cls-10" x1="3313.83" y1="-589.66" x2="339.64" y2="2384.51"/>
        <line class="cls-10" x1="3336.93" y1="-566.55" x2="362.74" y2="2407.61"/>
        <line class="cls-10" x1="3360.03" y1="-543.45" x2="385.85" y2="2430.71"/>
        <line class="cls-10" x1="3383.14" y1="-520.35" x2="408.95" y2="2453.82"/>
        <line class="cls-10" x1="3406.24" y1="-497.25" x2="432.05" y2="2476.92"/>
        <line class="cls-10" x1="3429.34" y1="-474.14" x2="455.16" y2="2500.02"/>
        <line class="cls-10" x1="3452.45" y1="-451.04" x2="478.26" y2="2523.13"/>
        <line class="cls-10" x1="3475.55" y1="-427.94" x2="501.36" y2="2546.23"/>
        <line class="cls-10" x1="3498.65" y1="-404.83" x2="524.46" y2="2569.33"/>
        <line class="cls-10" x1="3521.75" y1="-381.73" x2="547.57" y2="2592.43"/>
        <line class="cls-10" x1="3544.86" y1="-358.63" x2="570.67" y2="2615.54"/>
        <line class="cls-10" x1="3567.96" y1="-335.53" x2="593.77" y2="2638.64"/>
        <line class="cls-10" x1="3591.06" y1="-312.42" x2="616.88" y2="2661.74"/>
        <line class="cls-10" x1="3614.17" y1="-289.32" x2="639.98" y2="2684.84"/>
        <line class="cls-10" x1="3637.27" y1="-266.22" x2="663.08" y2="2707.95"/>
        <line class="cls-10" x1="3660.37" y1="-243.11" x2="686.19" y2="2731.05"/>
        <line class="cls-10" x1="3683.48" y1="-220.01" x2="709.29" y2="2754.15"/>
        <line class="cls-10" x1="3706.58" y1="-196.91" x2="732.39" y2="2777.26"/>
        <line class="cls-10" x1="3729.68" y1="-173.81" x2="755.49" y2="2800.36"/>
        <line class="cls-10" x1="3752.78" y1="-150.7" x2="778.6" y2="2823.46"/>
        <line class="cls-10" x1="3775.89" y1="-127.6" x2="801.7" y2="2846.56"/>
        <line class="cls-10" x1="3798.99" y1="-104.5" x2="824.8" y2="2869.67"/>
        <line class="cls-10" x1="3822.09" y1="-81.39" x2="847.91" y2="2892.77"/>
        <line class="cls-10" x1="3845.2" y1="-58.29" x2="871.01" y2="2915.87"/>
        <line class="cls-10" x1="3868.3" y1="-35.19" x2="894.11" y2="2938.98"/>
        <line class="cls-10" x1="3891.4" y1="-12.09" x2="917.22" y2="2962.08"/>
        <line class="cls-10" x1="3914.51" y1="11.02" x2="940.32" y2="2985.18"/>
        <line class="cls-10" x1="3937.61" y1="34.12" x2="963.42" y2="3008.28"/>
        <line class="cls-10" x1="3960.71" y1="57.22" x2="986.52" y2="3031.39"/>
        <line class="cls-10" x1="3983.81" y1="80.33" x2="1009.63" y2="3054.49"/>
        <line class="cls-10" x1="4006.92" y1="103.43" x2="1032.73" y2="3077.59"/>
        <line class="cls-10" x1="4030.02" y1="126.53" x2="1055.83" y2="3100.7"/>
        <line class="cls-10" x1="4053.12" y1="149.63" x2="1078.94" y2="3123.8"/>
        <line class="cls-10" x1="4076.23" y1="172.74" x2="1102.04" y2="3146.9"/>
        <line class="cls-10" x1="4099.33" y1="195.84" x2="1125.14" y2="3170"/>
        <line class="cls-10" x1="4122.43" y1="218.94" x2="1148.25" y2="3193.11"/>
        <line class="cls-10" x1="4145.54" y1="242.05" x2="1171.35" y2="3216.21"/>
        <line class="cls-10" x1="4168.64" y1="265.15" x2="1194.45" y2="3239.31"/>
        <line class="cls-10" x1="4191.74" y1="288.25" x2="1217.55" y2="3262.42"/>
        <line class="cls-10" x1="4214.84" y1="311.35" x2="1240.66" y2="3285.52"/>
        <line class="cls-10" x1="4237.95" y1="334.46" x2="1263.76" y2="3308.62"/>
        <line class="cls-10" x1="4261.05" y1="357.56" x2="1286.86" y2="3331.72"/>
        <line class="cls-10" x1="4284.15" y1="380.66" x2="1309.97" y2="3354.83"/>
        <line class="cls-10" x1="4307.26" y1="403.76" x2="1333.07" y2="3377.93"/>
        <line class="cls-10" x1="4330.36" y1="426.87" x2="1356.17" y2="3401.03"/>
        <line class="cls-10" x1="4353.46" y1="449.97" x2="1379.28" y2="3424.14"/>
        <line class="cls-10" x1="4376.57" y1="473.07" x2="1402.38" y2="3447.24"/>
        <line class="cls-10" x1="4399.67" y1="496.18" x2="1425.48" y2="3470.34"/>
        <line class="cls-10" x1="4422.77" y1="519.28" x2="1448.58" y2="3493.44"/>
        <line class="cls-10" x1="4445.87" y1="542.38" x2="1471.69" y2="3516.55"/>
        <line class="cls-10" x1="4468.98" y1="565.48" x2="1494.79" y2="3539.65"/>
        <line class="cls-10" x1="4492.08" y1="588.59" x2="1517.89" y2="3562.75"/>
        <line class="cls-10" x1="4515.18" y1="611.69" x2="1541" y2="3585.86"/>
        <line class="cls-10" x1="4538.29" y1="634.79" x2="1564.1" y2="3608.96"/>
        <line class="cls-10" x1="4561.39" y1="657.9" x2="1587.2" y2="3632.06"/>
        <line class="cls-10" x1="4574.33" y1="691.03" x2="1600.14" y2="3665.19"/>
        <line class="cls-10" x1="4587.27" y1="724.16" x2="1613.08" y2="3698.33"/>
        <line class="cls-10" x1="4600.21" y1="757.3" x2="1626.02" y2="3731.46"/>
        <line class="cls-10" x1="4613.15" y1="790.43" x2="1638.96" y2="3764.6"/>
        <line class="cls-10" x1="4626.09" y1="823.56" x2="1651.9" y2="3797.73"/>
      </g>
    </g>
  </g>
  <path class="cls-21" d="M2703.84,604.85c-8.81-179.5-157.13-322.33-338.82-322.33-100.86,0-191.42,44.03-253.56,113.9-138.86-83.7-301.55-131.87-475.51-131.87-509.55,0-922.59,413.04-922.59,922.55,0,1.05.03,2.1.03,3.15-25.2-4.26-51.09-6.51-77.52-6.51-255.69,0-462.96,207.3-462.96,462.99,0,86.73,23.85,167.88,65.34,237.27h2872.92c135.09-136.92,218.49-324.96,218.49-532.5,0-373.59-270.2-684.04-625.83-746.65Z"/>
  <g>
    <path class="cls-4" d="M666.16,169.78c-66.82,0-123.17,44.81-140.64,106.03h281.28c-17.47-61.21-73.82-106.03-140.64-106.03Z"/>
    <path class="cls-4" d="M1049.84,169.78c-66.82,0-123.17,44.81-140.64,106.03h281.28c-17.47-61.21-73.82-106.03-140.64-106.03Z"/>
    <path class="cls-4" d="M867.05,124.36c-95.44,0-175.94,64.01-200.89,151.45h401.78c-24.95-87.43-105.45-151.45-200.89-151.45Z"/>
  </g>
  <path class="cls-23" d="M917.29,921.95l32.94-74.55c28.61,16.9,66.75,27.74,100.12,27.74,29.04,0,39.44-6.07,39.44-16.47,0-38.14-167.73-7.37-167.73-120.49,0-56.34,47.24-102.29,141.3-102.29,40.74,0,82.78,8.67,114.42,26.44l-30.77,74.11c-29.91-15.17-58.08-22.54-84.52-22.54-29.91,0-39.44,8.67-39.44,19.07,0,36.41,167.73,6.07,167.73,117.89,0,55.48-47.24,102.29-141.3,102.29-50.71,0-101.85-12.57-132.19-31.21Z"/>
  <path class="cls-23" d="M2220.05,1430.82l64.47-145.91c55.99,33.08,130.64,54.29,195.96,54.29,56.84,0,77.2-11.88,77.2-32.24,0-74.65-328.3-14.42-328.3-235.83,0-110.28,92.47-200.2,276.55-200.2,79.74,0,162.03,16.97,223.96,51.75l-60.23,145.06c-58.53-29.69-113.68-44.11-165.42-44.11-58.53,0-77.2,16.97-77.2,37.33,0,71.26,328.3,11.88,328.3,230.74,0,108.58-92.47,200.2-276.55,200.2-99.25,0-199.36-24.6-258.74-61.08Z"/>
  <path class="cls-23" d="M1114.86,1262.06v96.65h-316.01v-380.08h308.95v96.65h-182.98v44.52h160.72v92.3h-160.72v49.95h190.04Z"/>
  <path class="cls-23" d="M3192.01,1253.34l-101.17,316.14h-114.26l-51.03-168.91-53.74,168.91h-114.26l-101.17-316.14h109.75l55.1,179.75,58.26-179.75h98l55.1,182.01,58.26-182.01h101.17Z"/>
  <g>
    <path class="cls-29" d="M526.46,1327.82c-52.86-92.04-22.76-208.55-22.76-208.55l191.43,333.3s-115.81-32.71-168.68-124.74Z"/>
    <path class="cls-24" d="M695.13,1452.56l-191.43-333.3s115.81,32.71,168.68,124.74c52.86,92.04,22.76,208.55,22.76,208.55Z"/>
  </g>
  <g>
    <path class="cls-29" d="M653.43,1260.58c.66-106.14,85.34-191.65,85.34-191.65l-2.41,384.35s-83.6-86.57-82.93-192.7Z"/>
    <path class="cls-24" d="M736.36,1453.28l2.41-384.35s83.6,86.57,82.93,192.7-85.34,191.65-85.34,191.65Z"/>
  </g>
  <rect class="cls-26" x="905.82" y="1555.95" width="1788.37" height="112.18" rx="56.09" ry="56.09"/>
  <g>
    <path class="cls-8" d="M312.81,611.59H0v-196.95c15.09-2.55,30.6-3.87,46.44-3.87,38.58,0,75.3,7.89,108.66,22.14,76.11,32.49,134.7,98.07,157.71,178.68Z"/>
    <path class="cls-8" d="M773.16,410.76c-126.56,0-233.29,84.88-266.38,200.82h532.76c-33.09-115.94-139.82-200.82-266.38-200.82Z"/>
    <path class="cls-8" d="M426.94,324.73c-180.78,0-333.23,121.24-380.49,286.85h760.99c-47.26-165.6-199.72-286.85-380.49-286.85Z"/>
  </g>
  <g>
    <path class="cls-13" d="M667.52,1374.57c-114.31,0-210.7,76.66-240.59,181.37h481.18c-29.89-104.71-126.28-181.37-240.59-181.37Z"/>
    <path class="cls-13" d="M1323.88,1374.57c-114.31,0-210.7,76.66-240.59,181.37h481.18c-29.89-104.71-126.28-181.37-240.59-181.37Z"/>
    <path class="cls-13" d="M1011.18,1296.87c-163.27,0-300.97,109.5-343.65,259.07h687.31c-42.69-149.57-180.38-259.07-343.65-259.07Z"/>
  </g>
  <g>
    <path class="cls-8" d="M2270.43,150.3c-38.16,0-70.35,25.6-80.33,60.56h160.65c-9.98-34.96-42.16-60.56-80.33-60.56Z"/>
    <path class="cls-8" d="M2489.57,150.3c-38.16,0-70.35,25.6-80.33,60.56h160.65c-9.98-34.96-42.16-60.56-80.33-60.56Z"/>
    <path class="cls-8" d="M2385.17,124.36c-54.51,0-100.49,36.56-114.74,86.5h229.48c-14.25-49.94-60.23-86.5-114.74-86.5Z"/>
  </g>
  <g>
    <path class="cls-13" d="M2855.49,534.04c-111.59,0-205.69,74.84-234.86,177.06h469.73c-29.17-102.22-123.28-177.06-234.86-177.06Z"/>
    <path class="cls-13" d="M3600,545.31v165.78h-308.43c20.28-71.04,71.94-128.88,139.05-157.53,29.43-12.57,61.8-19.53,95.82-19.53,25.65,0,50.34,3.96,73.56,11.28Z"/>
    <path class="cls-13" d="M3190.97,458.19c-159.39,0-293.8,106.9-335.48,252.91h670.95c-41.67-146.01-176.09-252.91-335.48-252.91Z"/>
  </g>
  <g>
    <path class="cls-8" d="M2614.5,662.36c-58.55,0-107.92,39.27-123.23,92.9h246.46c-15.31-53.63-64.68-92.9-123.23-92.9Z"/>
    <path class="cls-8" d="M2950.69,662.36c-58.55,0-107.92,39.27-123.23,92.9h246.46c-15.31-53.63-64.68-92.9-123.23-92.9Z"/>
    <path class="cls-8" d="M2790.52,622.57c-83.63,0-154.15,56.09-176.02,132.7h352.04c-21.86-76.61-92.39-132.7-176.02-132.7Z"/>
  </g>
  <g>
    <path class="cls-20" d="M2439.75,311.12h-1279.51c-29.99,0-54.3,24.31-54.3,54.3v924.38c0,29.99,24.31,54.3,54.3,54.3h580.99c9.63,22.95,32.31,39.08,58.76,39.08h0c26.45,0,49.13-16.13,58.76-39.08h580.99c29.99,0,54.3-24.31,54.3-54.3V365.41c0-29.99-24.31-54.3-54.3-54.3Z"/>
    <g>
      <path class="cls-8" d="M1202.67,392.8v869.61h597.33V488.57c0-52.89-42.88-95.77-95.77-95.77h-501.56Z"/>
      <path class="cls-16" d="M2397.33,392.8h-501.56c-52.89,0-95.77,42.88-95.77,95.77v773.83h597.33V392.8Z"/>
      <path class="cls-31" d="M1202.67,1170.01v92.39h597.33c0-51.03-41.36-92.39-92.39-92.39h-504.94Z"/>
      <path class="cls-31" d="M2397.33,1170.01h-504.94c-51.03,0-92.39,41.36-92.39,92.39h0s597.33,0,597.33,0v-92.39Z"/>
    </g>
    <g>
      <rect class="cls-13" x="1363.14" y="481.13" width="256.43" height="16.73"/>
      <rect class="cls-13" x="1363.14" y="516.27" width="256.43" height="16.73"/>
      <rect class="cls-13" x="1363.14" y="551.4" width="256.43" height="16.73"/>
      <rect class="cls-13" x="1363.14" y="586.54" width="196.71" height="16.73"/>
      <rect class="cls-13" x="1363.14" y="656.81" width="256.43" height="16.73"/>
      <rect class="cls-13" x="1363.14" y="691.95" width="256.43" height="16.73"/>
      <rect class="cls-13" x="1363.14" y="727.09" width="196.71" height="16.73"/>
      <rect class="cls-13" x="1363.14" y="762.22" width="256.43" height="16.73"/>
      <rect class="cls-13" x="1363.14" y="797.36" width="179.6" height="16.73"/>
      <rect class="cls-13" x="1363.14" y="937.91" width="256.43" height="16.73"/>
      <rect class="cls-13" x="1363.14" y="973.04" width="256.43" height="16.73"/>
      <rect class="cls-13" x="1363.14" y="1008.18" width="256.43" height="16.73"/>
      <rect class="cls-13" x="1363.14" y="1043.32" width="256.43" height="16.73"/>
      <rect class="cls-13" x="1363.14" y="1078.45" width="207.76" height="16.73"/>
      <g>
        <g>
          <g>
            <path class="cls-13" d="M1447.88,871.23c0-2.36,1.46-4.27,3.26-4.27s3.26,1.91,3.26,4.27-3.26,8.13-3.26,8.13c0,0-3.26-5.77-3.26-8.13Z"/>
            <path class="cls-13" d="M1447.88,887.5c0,2.36,1.46,4.27,3.26,4.27s3.26-1.91,3.26-4.27-3.26-8.13-3.26-8.13c0,0-3.26,5.77-3.26,8.13Z"/>
          </g>
          <g>
            <path class="cls-13" d="M1459.24,876.01c2.36-.03,4.29,1.41,4.31,3.22.02,1.8-1.88,3.28-4.23,3.31-2.36.03-8.17-3.17-8.17-3.17,0,0,5.74-3.33,8.09-3.35Z"/>
            <path class="cls-13" d="M1442.98,876.19c-2.36.03-4.25,1.51-4.23,3.31s1.95,3.24,4.31,3.22,8.09-3.35,8.09-3.35c0,0-5.81-3.2-8.17-3.17Z"/>
          </g>
        </g>
        <g>
          <g>
            <path class="cls-13" d="M1488.09,871.23c0-2.36,1.46-4.27,3.26-4.27s3.26,1.91,3.26,4.27-3.26,8.13-3.26,8.13c0,0-3.26-5.77-3.26-8.13Z"/>
            <path class="cls-13" d="M1488.09,887.5c0,2.36,1.46,4.27,3.26,4.27s3.26-1.91,3.26-4.27-3.26-8.13-3.26-8.13c0,0-3.26,5.77-3.26,8.13Z"/>
          </g>
          <g>
            <path class="cls-13" d="M1499.45,876.01c2.36-.03,4.29,1.41,4.31,3.22.02,1.8-1.88,3.28-4.23,3.31-2.36.03-8.17-3.17-8.17-3.17,0,0,5.74-3.33,8.09-3.35Z"/>
            <path class="cls-13" d="M1483.19,876.19c-2.36.03-4.25,1.51-4.23,3.31.02,1.8,1.95,3.24,4.31,3.22,2.36-.03,8.09-3.35,8.09-3.35,0,0-5.81-3.2-8.17-3.17Z"/>
          </g>
        </g>
        <g>
          <g>
            <path class="cls-13" d="M1528.3,871.23c0-2.36,1.46-4.27,3.26-4.27s3.26,1.91,3.26,4.27-3.26,8.13-3.26,8.13c0,0-3.26-5.77-3.26-8.13Z"/>
            <path class="cls-13" d="M1528.3,887.5c0,2.36,1.46,4.27,3.26,4.27s3.26-1.91,3.26-4.27-3.26-8.13-3.26-8.13c0,0-3.26,5.77-3.26,8.13Z"/>
          </g>
          <g>
            <path class="cls-13" d="M1539.65,876.01c2.36-.03,4.29,1.41,4.31,3.22.02,1.8-1.88,3.28-4.23,3.31-2.36.03-8.17-3.17-8.17-3.17,0,0,5.74-3.33,8.09-3.35Z"/>
            <path class="cls-13" d="M1523.39,876.19c-2.36.03-4.25,1.51-4.23,3.31.02,1.8,1.95,3.24,4.31,3.22,2.36-.03,8.09-3.35,8.09-3.35,0,0-5.81-3.2-8.17-3.17Z"/>
          </g>
        </g>
      </g>
    </g>
    <g>
      <rect class="cls-13" x="1988.92" y="481.13" width="246.38" height="16.73"/>
      <rect class="cls-13" x="1988.92" y="516.27" width="246.38" height="16.73"/>
      <rect class="cls-13" x="1988.92" y="551.4" width="246.38" height="16.73"/>
      <rect class="cls-13" x="1988.92" y="586.54" width="156.64" height="16.73"/>
      <rect class="cls-13" x="1988.92" y="621.68" width="246.38" height="16.73"/>
      <rect class="cls-13" x="1988.92" y="656.81" width="246.38" height="16.73"/>
      <rect class="cls-13" x="1988.92" y="691.95" width="246.38" height="16.73"/>
      <rect class="cls-13" x="1988.92" y="832.5" width="246.38" height="16.73"/>
      <rect class="cls-13" x="1988.92" y="866.05" width="147.63" height="18.32"/>
      <rect class="cls-13" x="1988.92" y="902.77" width="246.38" height="16.73"/>
      <rect class="cls-13" x="1988.92" y="937.91" width="246.38" height="16.73"/>
      <rect class="cls-13" x="1988.92" y="973.04" width="156.64" height="16.73"/>
      <rect class="cls-13" x="1988.92" y="1008.18" width="246.38" height="16.73"/>
      <rect class="cls-13" x="1988.92" y="1043.32" width="246.38" height="16.73"/>
      <rect class="cls-13" x="1988.92" y="1078.45" width="199.63" height="16.73"/>
    </g>
    <g>
      <g>
        <g>
          <path class="cls-13" d="M2065.14,763.66c0-2.36,1.46-4.27,3.26-4.27s3.26,1.91,3.26,4.27-3.26,8.13-3.26,8.13c0,0-3.26-5.77-3.26-8.13Z"/>
          <path class="cls-13" d="M2065.14,779.93c0,2.36,1.46,4.27,3.26,4.27s3.26-1.91,3.26-4.27-3.26-8.13-3.26-8.13c0,0-3.26,5.77-3.26,8.13Z"/>
        </g>
        <g>
          <path class="cls-13" d="M2076.5,768.44c2.36-.03,4.29,1.41,4.31,3.22.02,1.8-1.88,3.28-4.23,3.31s-8.17-3.17-8.17-3.17c0,0,5.74-3.33,8.09-3.35Z"/>
          <path class="cls-13" d="M2060.24,768.62c-2.36.03-4.25,1.51-4.23,3.31.02,1.8,1.95,3.24,4.31,3.22s8.09-3.35,8.09-3.35c0,0-5.81-3.2-8.17-3.17Z"/>
        </g>
      </g>
      <g>
        <g>
          <path class="cls-13" d="M2105.35,763.66c0-2.36,1.46-4.27,3.26-4.27s3.26,1.91,3.26,4.27-3.26,8.13-3.26,8.13c0,0-3.26-5.77-3.26-8.13Z"/>
          <path class="cls-13" d="M2105.35,779.93c0,2.36,1.46,4.27,3.26,4.27s3.26-1.91,3.26-4.27-3.26-8.13-3.26-8.13c0,0-3.26,5.77-3.26,8.13Z"/>
        </g>
        <g>
          <path class="cls-13" d="M2116.7,768.44c2.36-.03,4.29,1.41,4.31,3.22.02,1.8-1.88,3.28-4.23,3.31s-8.17-3.17-8.17-3.17c0,0,5.74-3.33,8.09-3.35Z"/>
          <path class="cls-13" d="M2100.44,768.62c-2.36.03-4.25,1.51-4.23,3.31.02,1.8,1.95,3.24,4.31,3.22s8.09-3.35,8.09-3.35c0,0-5.81-3.2-8.17-3.17Z"/>
        </g>
      </g>
      <g>
        <g>
          <path class="cls-13" d="M2145.55,763.66c0-2.36,1.46-4.27,3.26-4.27s3.26,1.91,3.26,4.27-3.26,8.13-3.26,8.13c0,0-3.26-5.77-3.26-8.13Z"/>
          <path class="cls-13" d="M2145.55,779.93c0,2.36,1.46,4.27,3.26,4.27s3.26-1.91,3.26-4.27-3.26-8.13-3.26-8.13c0,0-3.26,5.77-3.26,8.13Z"/>
        </g>
        <g>
          <path class="cls-13" d="M2156.91,768.44c2.36-.03,4.29,1.41,4.31,3.22.02,1.8-1.88,3.28-4.23,3.31s-8.17-3.17-8.17-3.17c0,0,5.74-3.33,8.09-3.35Z"/>
          <path class="cls-13" d="M2140.65,768.62c-2.36.03-4.25,1.51-4.23,3.31.02,1.8,1.95,3.24,4.31,3.22s8.09-3.35,8.09-3.35c0,0-5.81-3.2-8.17-3.17Z"/>
        </g>
      </g>
    </g>
  </g>
  <g>
    <path class="cls-8" d="M2132.38,1401.9c.37-.07.73-.19,1.09-.34,2.89-1.22,4.23-4.55,3.01-7.43l-15.9-37.57c-1.22-2.88-4.55-4.23-7.43-3.01-2.89,1.22-4.23,4.55-3.01,7.43l15.9,37.57c1.07,2.53,3.75,3.88,6.34,3.35Z"/>
    <path class="cls-30" d="M2139.35,1395.68s3.51,14.59,0,14.99-54.06,1.94-54.36-.41c-1.01-8.01,40.31-15.4,44.37-14.59,4.05.81,9.53-2.12,9.99,0Z"/>
    <path class="cls-8" d="M2028.52,1403.22c.38,0,.76-.04,1.14-.12,3.07-.63,5.05-3.62,4.43-6.69l-8.14-39.98c-.63-3.07-3.63-5.05-6.69-4.43-3.07.63-5.05,3.62-4.43,6.69l8.14,39.98c.55,2.69,2.91,4.54,5.55,4.54Z"/>
    <path class="cls-7" d="M2016.03,1379.97c6.05-.16,12.09-.77,18.07-1.66-17.98-96.1-31.58-225.07,16.49-314.89-14.59-7.16-29.27-14.15-43.97-21.09-35.13,78.26-5.21,254.97,9.42,337.64Z"/>
    <path class="cls-7" d="M2114.41,1380.59c6.02-1.78,12-3.68,17.81-6.07-44.98-87.89-76.77-229.58-68.91-329.64-16.35-.84-32.73-1.39-49.1-1.86,6.13,100.14,61.28,247.3,100.19,337.57Z"/>
    <path class="cls-30" d="M2035.61,1395.68s3.51,14.59,0,14.99-54.06,1.94-54.36-.41c-1.01-8.01,40.31-15.4,44.37-14.59,4.05.81,9.53-2.12,9.99,0Z"/>
    <path class="cls-17" d="M1986.38,1161.67c9.58-3.2,33.12,1.48,42.65-.45,14.03-2.86,27.62-2.96,41.49-2.14,1.77-43.51-3.14-174.09.03-216.75.69-8.97,1.14-14.32-.53-21.04-2.25-9.05-6.96-15.3-13.07-18.6-7.49-4.1-17.07-3.78-26.75,1.16-1.38.64-2.81,1.46-4.21,2.54-5.74,4.39-11.04,12.97-11.88,29.14-2.14,40.38-27.73,144.02-27.73,226.14Z"/>
    <path class="cls-8" d="M2078.9,1057.84s-29.04,10-31.64,17.28c-2.6,7.29,26.12.9,38.07-13.31l-6.43-3.98Z"/>
    <path class="cls-17" d="M2076.7,1055.19c2.68,4.39,5.51,8.73,8.13,12.81,73.4-57.72,68.78-92.53-10.79-153.62-12.17-9.34-12.71-7.12-18.6,2.08-2.2-.73-2.17-.83,0,0-5.89,9.21-1.28,11.84,8.32,19.18,62.75,47.98,76.44,73.92,12.94,119.54Z"/>
    <path class="cls-8" d="M1914.39,860.13s5.15-30.28,0-36.05-13.31,22.49-6.58,39.79l6.57-3.74Z"/>
    <path class="cls-17" d="M1917.77,859.48c-5.14.25-10.3.65-15.14,1,15.46,92.09,48.22,104.72,139.98,64.19,14.04-6.2,12.35-7.74,7.09-17.32,1.7-1.58,1.77-1.5,0,0-5.26-9.58-9.78-6.8-20.83-1.89-72.2,32.06-101.52,31.64-111.1-45.97Z"/>
    <path class="cls-8" d="M2025.99,906.39l.82,27.23,1.01,34.19,14.21-31.78,14.93-33.34c-7.49-4.1-17.07-3.78-26.75,1.16-1.38.64-2.81,1.46-4.21,2.54Z"/>
    <path class="cls-8" d="M2054.88,876.32c-9.36,14.39-26.96,19.53-35.76,13.81-8.79-5.72-5.44-20.13,3.92-34.52,9.36-14.39,21.25-17.07,30.04-11.35,8.79,5.72,11.16,17.68,1.8,32.06Z"/>
    <path class="cls-8" d="M2058.14,885.49c-2.18,3.35-8.29,5.47-10.71,3.89-2.42-1.58-1.27-4.69.91-8.04s6.18-5.2,8.61-3.63c2.42,1.58,3.37,4.42,1.19,7.77Z"/>
    <path class="cls-8" d="M2052.8,873.94l-17.94-1.75c-.24,2.46-2.12,25.84-1.21,34.66.66,2.71,5.13,3.96,9.99,2.78,4.37-1.06,7.53-3.72,7.65-6.21h.02c-.55-5.29.65-20.89,1.48-29.48Z"/>
    <path class="cls-30" d="M2046.12,881.25c-2.64-2.86-5.13-.28-11.5,3.29-6.35,3.58-17.74,2.65-18.53-12.24-.5-9.49-5.85,6.02-5.86,6.04-1.07,7.78,1.03,12.49,6.25,15.88,7.2,4.68,18.69,4.02,28.87-2.06,1.63-3.81,2.58-8.96.77-10.91Z"/>
    <path class="cls-30" d="M2015.6,871.74s.22.11.61.33c3.13,1.7,17.35,9.67,18.79,15.55,1.62,6.61-7.64-2.55-10.44-6.79-2.8-4.24-6.19-3.67-9.24-4.56-3.04-.89-4.44-4.7.29-4.53Z"/>
    <path class="cls-30" d="M2062.93,868.52s2.95-11.19-2.09-19.21c-5.04-8.02-19.31-16.48-30.61-5.68,0,0-7.32,8.41,3.56,16.38,10.89,7.97,12.22.65,14.75,9.59,2.53,8.94,10.05,7.49,10.39,9.41l4-10.49Z"/>
    <polygon class="cls-25" points="2026.81 933.62 2027.81 967.81 2042.02 936.02 2041.47 915.28 2035.2 915.28 2026.81 933.62"/>
  </g>
  <g>
    <rect class="cls-15" x="1800" y="1511.36" width="545.41" height="100.08"/>
    <rect class="cls-2" x="1903.59" y="1411.41" width="338.24" height="100.08"/>
  </g>
  <g>
    <path class="cls-7" d="M2033.97,833.74s-9.56,4.1-5.2,12.29c7.73,14.52,18.87,5.55,23.03,11.74,4.16,6.19,7.21,14.06,14.07,11.45,6-2.28,8.45-11.83.91-19.22-7.55-7.39-16.72-21.78-32.81-16.27Z"/>
    <path class="cls-7" d="M2056.95,843.14s8.74-1.37,10.24-4.62c1.5-3.25,5.44-1,5.25,1.44-.19,2.44-10.09,7.44-13.2,7.19-3.11-.25-2.29-4-2.29-4Z"/>
  </g>
  <g>
    <g>
      <path class="cls-28" d="M1333.32,805.28l193.7,551.67-79.46,10.46-72-205.07,55.56-7.78-61.78-9.93-38.25-108.95,55.71-15.06-61.75-2.13-7.7-21.94,55.71-15.06-61.75-2.13-26.01-74.08c-14.35-40.87,7.16-85.64,48.02-99.99Z"/>
      <path class="cls-3" d="M1488.78,1011.28l-39.48,43.56,45.32-26.93,9.94,28.3-39.48,43.56,45.32-26.93,46.25,131.72-39.48,43.56,45.32-26.93,9.7,27.64-47.86,32.01,53.47-16.03,17.78,50.64-68.55,41.51-193.7-551.67c40.88-14.36,85.64,7.16,99.99,48.02l55.47,157.98Z"/>
    </g>
    <path class="cls-8" d="M1569.77,1478.69h0c-3.87,1.36-8.1-.68-9.46-4.54l-195.73-557.44c-1.36-3.87.68-8.1,4.54-9.46h0c3.87-1.36,8.1.68,9.46,4.54l195.73,557.44c1.36,3.87-.68,8.1-4.54,9.46Z"/>
  </g>
  <g>
    <path class="cls-20" d="M1659.33,1474.41h-38.59c-7.22,0-13.07-5.85-13.07-13.07v-34.93h-87.5v34.93c0,7.22-5.85,13.07-13.07,13.07h-38.59c-7.47,0-13.52,6.05-13.52,13.52v110.89c0,6.97,5.65,12.62,12.62,12.62h192.61c6.97,0,12.62-5.65,12.62-12.62v-110.89c0-7.47-6.05-13.52-13.52-13.52Z"/>
    <rect class="cls-30" x="1511.43" y="1442.2" width="105" height="15" rx="7.5" ry="7.5"/>
    <path class="cls-30" d="M1608.93,1430.2h-90c-4.14,0-7.5-3.36-7.5-7.5h0c0-4.14,3.36-7.5,7.5-7.5h90c4.14,0,7.5,3.36,7.5,7.5h0c0,4.14-3.36,7.5-7.5,7.5Z"/>
    <g>
      <path class="cls-30" d="M1567.19,1550.19c-15.16-3.61-30.59-7.68-46.12-6.31-9.08.8-18.3,3.91-25.63,9.21v20.35h136.97v-28.04c-5.56,4.17-12.22,7.1-18.99,8.48-15.28,3.11-31.07-.08-46.23-3.69Z"/>
      <path class="cls-33" d="M1495.44,1511.36v41.73c7.33-5.3,16.55-8.4,25.63-9.21,15.53-1.37,30.95,2.7,46.12,6.31,15.16,3.61,30.96,6.8,46.23,3.69,6.77-1.38,13.43-4.31,18.99-8.48v-34.05h-136.97Z"/>
    </g>
  </g>
  <path class="cls-23" d="M3215.48,1015.05c-13.67,16.19-33.49,24.84-56.93,24.84-34.61,0-56.09-10.88-91.26-47.72-49.12-10.33-82.88-49.12-82.88-99.35,0-59.16,46.61-102.14,110.23-102.14s110.23,42.98,110.23,102.14c0,43.26-24.84,77.86-63.07,93.21,5.86,6.14,11.16,8.09,18.14,8.09,9.49,0,18.98-4.47,27.07-12.56l28.47,33.49ZM3050.83,892.81c0,30.42,19.54,48.84,43.81,48.84s43.81-18.42,43.81-48.84-19.54-48.84-43.81-48.84-43.81,18.42-43.81,48.84Z"/>
  <path class="cls-23" d="M2897.44,1131.95h-27.8v76.44h-102.5v-304.02h146.36c84.69,0,138.55,44.3,138.55,114.66,0,43.87-20.85,76.87-57.33,95.55l63.84,93.81h-109.45l-51.68-76.44ZM2906.99,983.42h-37.35v71.23h37.35c28.23,0,41.69-13.46,41.69-35.61s-13.46-35.61-41.69-35.61Z"/>
  <g>
    <path class="cls-6" d="M2013.93,821.64s-34.36-125.51-159.48-151.91c-201.6-42.53-322.93-262.79-193.95-431.68,136.02-178.12,375.34-120.29,392.6,1.35,17.27,121.64-92.83,212.45-40.84,324.46,51.99,112.01,12.99,223.82,1.67,257.77Z"/>
    <g class="cls-14">
      <g>
        <path class="cls-8" d="M1901.42,267.05h-40.84l-7.22,18.73h-36.85l46.98-107.46h35.62l46.98,107.46h-37.46l-7.22-18.73ZM1891.44,240.95l-10.44-27.02-10.44,27.02h20.88Z"/>
        <path class="cls-8" d="M1673.65,569.59l-29.5-8.2-8.97,12.08-26.62-7.4,55.51-68.21,25.73,7.15,12.37,87.06-27.06-7.52-1.45-14.98ZM1671.68,548.73l-2.12-21.62-12.97,17.42,15.08,4.19Z"/>
        <path class="cls-8" d="M1831.86,159.12v5.92h14.41v8.79h-14.41v11.06h-11.65v-34.55h28.09v8.79h-16.44Z"/>
        <path class="cls-8" d="M1936.49,596.19c1.84,5.73-1.94,10.62-11.01,13.53l-18.52,5.93-10.54-32.91,17.58-5.63c9.07-2.9,14.46-.64,16.06,4.34.98,3.06.24,6.09-2.29,8.56,4.31.18,7.47,2.27,8.71,6.18ZM1909.81,587l1.57,4.89,5.17-1.66c2.49-.8,3.35-2.01,2.84-3.6-.51-1.6-1.91-2.08-4.4-1.29l-5.17,1.66ZM1924.89,598.5c-.54-1.69-2.05-2.19-4.49-1.41l-6.68,2.14,1.66,5.17,6.68-2.14c2.44-.78,3.38-2.07,2.84-3.76Z"/>
        <path class="cls-8" d="M1882.27,436.32c0,6.02-5.08,9.53-14.61,9.53h-19.45v-34.55h18.46c9.53,0,13.97,3.8,13.97,9.03,0,3.21-1.63,5.87-4.79,7.45,4.05,1.48,6.42,4.44,6.42,8.54ZM1859.67,419.44v5.13h5.43c2.62,0,3.8-.89,3.8-2.57s-1.18-2.57-3.8-2.57h-5.43ZM1870.52,434.98c0-1.78-1.28-2.71-3.85-2.71h-7.01v5.43h7.01c2.57,0,3.85-.94,3.85-2.71Z"/>
        <path class="cls-8" d="M2040.89,296.08c0,6.02-5.08,9.53-14.61,9.53h-19.45v-34.55h18.46c9.53,0,13.97,3.8,13.97,9.03,0,3.21-1.63,5.87-4.79,7.45,4.05,1.48,6.42,4.44,6.42,8.54ZM2018.28,279.19v5.13h5.43c2.62,0,3.8-.89,3.8-2.57s-1.18-2.57-3.8-2.57h-5.43ZM2029.14,294.74c0-1.78-1.28-2.71-3.85-2.71h-7.01v5.43h7.01c2.57,0,3.85-.94,3.85-2.71Z"/>
        <path class="cls-8" d="M1846.57,651.83c-4.75,1.24-9.66.23-14.11-2.9-6.56-4.62-9.18-9.55-10.92-21.23-7.93-8.52-9.15-20.38-2.44-29.9,7.9-11.21,22.47-13.13,34.53-4.64,12.06,8.5,15.15,22.87,7.25,34.08-5.78,8.2-15.1,11.44-24.4,9.24.29,1.95,1.03,3.02,2.36,3.96,1.8,1.27,4.19,1.69,6.81,1.24l.92,10.15ZM1831.69,606.68c-4.06,5.76-2.82,11.86,1.78,15.11,4.6,3.24,10.76,2.36,14.83-3.4,4.06-5.76,2.82-11.86-1.78-15.11-4.6-3.24-10.76-2.36-14.83,3.4Z"/>
        <path class="cls-8" d="M1751.59,573.91l2.83-4.05-11.14-7.79,10.45-14.94,44.3,30.99-14.92,21.33c-8.63,12.34-20.58,15.67-30.83,8.5-6.39-4.47-9.08-10.87-8.08-18.09l-20.18-.26,11.16-15.95,16.41.26ZM1772.26,590.44l3.81-5.44-10.38-7.26-3.81,5.44c-2.88,4.11-2.29,7.45.94,9.71s6.56,1.67,9.44-2.45Z"/>
        <path class="cls-8" d="M1998.62,476.43l7.04-2.41-6.62-19.37,25.97-8.88,26.33,77.02-37.08,12.67c-21.46,7.33-38.94.77-45.03-17.05-3.8-11.11-1.38-21.28,6.25-29.17l-24.3-18.24,27.73-9.48,19.71,14.89ZM2009.07,514.88l9.46-3.23-6.17-18.05-9.46,3.23c-7.15,2.44-9.4,7.02-7.48,12.63,1.92,5.61,6.5,7.86,13.65,5.41Z"/>
        <path class="cls-8" d="M1951.08,172.43h13.26v19.15c-5.5,3.75-13.07,5.76-19.73,5.76-14.62,0-25.3-9.77-25.3-23.68s10.68-23.68,25.62-23.68c8.93,0,16.11,3.11,20.7,8.73l-9.77,8.6c-2.85-3.3-6.15-4.98-10.16-4.98-6.73,0-11,4.33-11,11.32s4.27,11.32,10.8,11.32c1.88,0,3.69-.32,5.56-1.1v-11.45Z"/>
        <path class="cls-8" d="M1849.95,537.22v11.52h-37.65v-45.29h36.81v11.52h-21.8v5.31h19.15v11h-19.15v5.95h22.64Z"/>
        <path class="cls-8" d="M1666.36,269.34l5.32,7.43-24.29,17.38-20.91-29.22,23.75-17,5.32,7.43-14.07,10.07,2.45,3.42,12.36-8.84,5.08,7.1-12.36,8.84,2.75,3.84,14.61-10.45Z"/>
        <path class="cls-8" d="M1626.98,477.37l1.3-22.58-20.88,8.25-22.04-16.13,41.9-13.76.81-43.06,21.71,15.89-.8,21.56,20.06-7.47,20.81,15.23-40.18,13.13-.56,45.13-22.12-16.19Z"/>
        <path class="cls-8" d="M1799.96,182.23l-27.31,85.35h-30.85l-13.78-45.6-14.51,45.6h-30.85l-27.31-85.35h29.63l14.87,48.53,15.73-48.53h26.46l14.87,49.13,15.73-49.13h27.31Z"/>
        <path class="cls-8" d="M1828.2,415.77c-7.41,2.11-15.15.7-22.23-4.05-10.45-7.02-14.73-14.67-17.87-32.93-12.74-13.09-15.06-31.65-4.87-46.82,12.01-17.87,34.8-21.39,54.02-8.47,19.21,12.91,24.57,35.35,12.56,53.22-8.78,13.06-23.3,18.47-37.96,15.35.52,3.04,1.73,4.71,3.84,6.13,2.87,1.93,6.64,2.5,10.72,1.7l1.8,15.89ZM1803.29,345.44c-6.17,9.19-4.01,18.71,3.32,23.64,7.33,4.93,16.97,3.33,23.14-5.86,6.17-9.19,4.01-18.71-3.32-23.64-7.33-4.93-16.97-3.33-23.14,5.86Z"/>
        <path class="cls-8" d="M1959.87,631.49c-4.96-5.9-6.83-13.54-5.38-21.95,2.14-12.41,7.37-19.44,22.76-29.77,6.74-16.97,22.74-26.68,40.75-23.57,21.21,3.66,33.74,23.03,29.8,45.84-3.94,22.81-22.23,36.86-43.44,33.2-15.51-2.68-26.38-13.72-29.52-28.38-2.56,1.72-3.59,3.5-4.02,6-.59,3.4.43,7.08,2.83,10.48l-13.77,8.13ZM2013.88,580.03c-10.91-1.88-18.72,3.98-20.22,12.69-1.5,8.7,3.89,16.85,14.8,18.73,10.91,1.88,18.72-3.98,20.22-12.69,1.5-8.7-3.89-16.85-14.8-18.73Z"/>
        <path class="cls-8" d="M2021.99,248.07l-16.13-28.09-.63,30.22-9.19,5.2-25.68-14.05,15.4,27.22-19,10.75-35-61.86,17.14-9.7,38.8,21.56.97-44.06,17.14-9.7,35.18,61.76-19,10.75Z"/>
        <path class="cls-8" d="M1758.47,339.81c0,12.39-10.46,19.6-30.06,19.6h-40.01v-71.08h37.98c19.6,0,28.74,7.82,28.74,18.58,0,6.6-3.35,12.08-9.85,15.33,8.33,3.05,13.2,9.14,13.2,17.57ZM1711.96,305.08v10.56h11.17c5.38,0,7.82-1.83,7.82-5.28s-2.44-5.28-7.82-5.28h-11.17ZM1734.3,337.06c0-3.66-2.64-5.58-7.92-5.58h-14.42v11.17h14.42c5.28,0,7.92-1.93,7.92-5.58Z"/>
        <path class="cls-8" d="M2025.4,741c6.75,7.04,4.74,16.83-6.39,27.51l-22.72,21.8-38.73-40.37,21.57-20.69c11.13-10.68,20.58-11.22,26.44-5.1,3.6,3.75,4.68,8.69,2.76,14.07,6.39-2.81,12.48-2,17.07,2.78ZM1980.06,746.62l5.75,6,6.34-6.09c3.06-2.93,3.44-5.3,1.56-7.26-1.88-1.96-4.26-1.67-7.32,1.26l-6.34,6.09ZM2010.18,752.61c-1.99-2.08-4.54-1.73-7.54,1.14l-8.19,7.86,6.09,6.34,8.19-7.86c3-2.88,3.45-5.41,1.46-7.49Z"/>
        <path class="cls-8" d="M2043.2,390.33c-1.98,12.2-9.29,22.48-21.01,29.52-17.3,10.39-31.32,11.4-59.97,3.54-27.66,9.59-56.2.33-71.29-24.79-17.77-29.59-7.37-65.07,24.45-84.18,31.82-19.11,68.03-11.62,85.8,17.97,12.99,21.63,10.96,46.4-3.54,65.55,4.77,1.31,8.01.69,11.5-1.4,4.74-2.85,8.15-7.93,9.77-14.41l24.29,8.2ZM1924.15,378.65c9.14,15.21,24.44,18.56,36.58,11.26,12.14-7.29,16.38-22.37,7.24-37.58-9.14-15.21-24.44-18.56-36.58-11.26-12.14,7.29-16.38,22.37-7.24,37.58Z"/>
        <path class="cls-8" d="M1998.2,675.12h16.55v23.9c-6.86,4.68-16.31,7.19-24.63,7.19-18.25,0-31.57-12.19-31.57-29.55s13.32-29.55,31.98-29.55c11.14,0,20.11,3.88,25.84,10.9l-12.19,10.74c-3.55-4.12-7.67-6.22-12.68-6.22-8.4,0-13.73,5.41-13.73,14.13s5.33,14.13,13.48,14.13c2.34,0,4.6-.4,6.94-1.37v-14.29Z"/>
        <path class="cls-8" d="M1888.64,481.78l7.76,16.71,40.65-18.89,11.52,24.78-40.65,18.89,14.49,31.19-32.86,15.27-45.28-97.46,79.22-36.81,11.52,24.78-46.36,21.54Z"/>
        <path class="cls-8" d="M1900.37,653.31l-8.78,11.03,26.84,21.37-13.03,16.36-26.84-21.37-16.39,20.59-21.69-17.27,51.23-64.34,52.3,41.64-13.03,16.36-30.61-24.37Z"/>
        <path class="cls-8" d="M1763.44,479.18l24.19,20.14-29.07,34.92c-15.73-1.51-32.58-9.34-44.73-19.46-26.66-22.2-31.3-56.22-10.18-81.59,21.12-25.37,55.42-26.98,82.67-4.29,16.28,13.56,24.66,30.12,24.5,47.36l-30.88.86c-.18-10.34-3.65-18.42-10.96-24.51-12.27-10.22-26.64-8.79-37.25,3.95-10.31,12.39-9.4,27.13,2.51,37.05,3.42,2.85,7.22,5.01,11.82,6.44l17.39-20.88Z"/>
      </g>
    </g>
  </g>
  <g>
    <path class="cls-20" d="M2558.08,417.51c-9.97,1.71-18.62,6.54-25.12,13.31-6.5-6.77-15.15-11.6-25.12-13.31-19.51-3.34-38.22,6.26-47.44,22.56,12.74-3.72,27.99-4.61,43.91-1.86,7.07,1.23,13.78,3.07,19.98,5.42,3,1.12,5.9,2.39,8.68,3.77,2.77-1.38,5.67-2.64,8.68-3.77,6.2-2.35,12.91-4.19,19.98-5.42,15.91-2.75,31.17-1.86,43.91,1.86-9.23-16.29-27.93-25.9-47.44-22.56Z"/>
    <path class="cls-20" d="M2628.04,327.06c-9.96,1.73-18.61,6.57-25.1,13.35-6.51-6.76-15.17-11.57-25.14-13.27-19.51-3.31-38.21,6.32-47.41,22.63,12.73-3.74,27.99-4.65,43.9-1.93,7.07,1.22,13.78,3.05,19.98,5.39,3.01,1.12,5.91,2.38,8.68,3.75,2.77-1.38,5.67-2.65,8.67-3.78,6.2-2.36,12.9-4.21,19.97-5.45,15.91-2.77,31.17-1.91,43.91,1.8-9.25-16.28-27.97-25.86-47.47-22.49Z"/>
    <path class="cls-20" d="M2373.83,298.58c-8.99-4.63-18.8-5.99-28.07-4.49-1.11-9.32-5.12-18.38-12.04-25.75-13.57-14.42-34.28-18.01-51.46-10.55,12.41,4.7,25.13,13.17,36.18,24.95,4.9,5.23,9.15,10.74,12.69,16.35,1.72,2.7,3.27,5.46,4.66,8.23,3.04.57,6.12,1.3,9.19,2.22,6.36,1.86,12.83,4.43,19.21,7.7,14.36,7.38,26.01,17.28,33.94,27.92,2.44-18.56-6.71-37.5-24.3-46.57Z"/>
    <path class="cls-20" d="M2667.23,241.92c-8.55,1.81-15.86,6.27-21.24,12.33-5.84-5.63-13.47-9.51-22.13-10.65-16.96-2.24-32.79,6.68-40.21,21.06,10.88-3.64,24.02-4.92,37.85-3.07,6.14.82,12,2.19,17.43,4.01,2.63.87,5.18,1.87,7.62,2.96,2.35-1.28,4.81-2.47,7.37-3.54,5.28-2.23,11.01-4.05,17.07-5.34,13.65-2.91,26.85-2.65,37.98.14-8.51-13.76-24.98-21.43-41.72-17.89Z"/>
    <path class="cls-20" d="M2776,148.69c-6.75-.48-13.14,1.26-18.44,4.62-3.13-5.44-7.98-9.96-14.18-12.67-12.13-5.3-25.82-2.05-34.42,7.05,8.87-.38,18.92,1.49,28.81,5.82,4.39,1.93,8.45,4.2,12.1,6.72,1.77,1.21,3.45,2.5,5.03,3.84,2.02-.45,4.11-.81,6.24-1.06,4.4-.53,9.05-.65,13.84-.32,10.77.76,20.54,3.78,28.22,8.24-3.38-12.06-13.99-21.29-27.2-22.25Z"/>
    <path class="cls-20" d="M2912.77,119.7c-5.26-.38-10.24.98-14.38,3.6-2.44-4.24-6.22-7.76-11.05-9.87-9.46-4.13-20.13-1.6-26.83,5.49,6.91-.29,14.75,1.16,22.46,4.54,3.42,1.5,6.59,3.27,9.43,5.24,1.38.94,2.69,1.95,3.92,2.99,1.57-.35,3.2-.63,4.86-.82,3.43-.41,7.06-.51,10.79-.25,8.4.59,16.01,2.95,21.99,6.42-2.64-9.4-10.9-16.6-21.2-17.34Z"/>
    <path class="cls-20" d="M2533.58,146.51c-5.17,1.01-9.63,3.62-12.94,7.23-3.46-3.45-8.03-5.87-13.25-6.65-10.21-1.52-19.85,3.71-24.47,12.31,6.6-2.09,14.54-2.73,22.86-1.48,3.7.56,7.22,1.44,10.47,2.59,1.58.55,3.1,1.18,4.57,1.86,1.43-.75,2.92-1.44,4.48-2.06,3.2-1.3,6.68-2.33,10.35-3.06,8.26-1.62,16.22-1.33,22.91.46-5-8.39-14.86-13.18-24.99-11.21Z"/>
    <path class="cls-20" d="M2837.45,236.68c-3.49,1.43-6.26,3.89-8.08,6.88-2.92-1.94-6.46-3-10.23-2.82-7.38.36-13.42,5.37-15.47,12.06,4.34-2.39,9.83-3.95,15.85-4.23,2.68-.12,5.27,0,7.72.36,1.19.17,2.35.39,3.47.67.9-.73,1.85-1.42,2.86-2.07,2.07-1.36,4.37-2.57,6.84-3.59,5.58-2.29,11.21-3.2,16.15-2.87-4.68-5.19-12.27-7.18-19.11-4.38Z"/>
    <path class="cls-20" d="M2916.5,48.82c-3.49,1.43-6.26,3.89-8.08,6.88-2.92-1.94-6.46-3-10.23-2.82-7.38.36-13.42,5.37-15.47,12.06,4.34-2.39,9.83-3.95,15.85-4.23,2.68-.12,5.27,0,7.72.36,1.19.17,2.35.39,3.47.67.9-.73,1.85-1.42,2.86-2.07,2.07-1.36,4.37-2.57,6.84-3.59,5.58-2.29,11.21-3.2,16.15-2.87-4.68-5.19-12.27-7.18-19.11-4.38Z"/>
    <path class="cls-20" d="M2731.19,392.53c-3.74-.54-7.37.17-10.45,1.82-1.52-3.15-4.04-5.87-7.38-7.63-6.54-3.44-14.29-2.19-19.45,2.52,4.95.15,10.47,1.6,15.8,4.42,2.37,1.25,4.53,2.68,6.46,4.23.94.75,1.82,1.53,2.64,2.34,1.14-.17,2.32-.28,3.51-.33,2.47-.12,5.07,0,7.72.39,5.97.86,11.28,2.94,15.37,5.74-1.39-6.85-6.92-12.42-14.23-13.49Z"/>
    <path class="cls-20" d="M2673.46,96.32c-3.74-.54-7.37.17-10.45,1.82-1.52-3.15-4.04-5.87-7.38-7.63-6.54-3.44-14.29-2.19-19.45,2.52,4.95.15,10.47,1.6,15.8,4.42,2.37,1.25,4.53,2.68,6.46,4.23.94.75,1.82,1.53,2.64,2.34,1.14-.17,2.32-.28,3.51-.33,2.47-.12,5.07,0,7.72.39,5.97.86,11.28,2.94,15.37,5.74-1.39-6.85-6.92-12.42-14.23-13.49Z"/>
    <path class="cls-20" d="M2491.37,240.38c-7.91,3.72-14.01,9.72-17.87,16.86-6.97-4.15-15.28-6.18-23.98-5.32-17.02,1.7-30.4,13.99-34.34,29.69,9.76-6.03,22.26-10.27,36.15-11.64,6.17-.6,12.18-.61,17.88-.08,2.76.24,5.47.64,8.09,1.15,1.99-1.78,4.12-3.51,6.36-5.13,4.63-3.38,9.79-6.45,15.4-9.1,12.62-5.95,25.54-8.71,37.01-8.53-11.43-11.45-29.22-15.16-44.7-7.89Z"/>
    <path class="cls-20" d="M2609.72,542.73c-9.15,4.3-16.21,11.25-20.68,19.51-8.06-4.8-17.69-7.15-27.75-6.15-19.7,1.96-35.18,16.2-39.74,34.35,11.29-6.98,25.76-11.89,41.83-13.46,7.14-.7,14.1-.7,20.7-.09,3.19.28,6.33.74,9.36,1.33,2.31-2.06,4.76-4.06,7.36-5.94,5.35-3.91,11.33-7.47,17.82-10.53,14.61-6.88,29.55-10.08,42.82-9.88-13.22-13.25-33.81-17.54-51.73-9.14Z"/>
  </g>
  <g>
    <ellipse class="cls-22" cx="1223.77" cy="1549.32" rx="24" ry="20.34" transform="translate(-727.04 1853.18) rotate(-60.55)"/>
    <path class="cls-15" d="M1124.79,1534.17c-17.06-9.63-28.53-34.35-18.9-51.41s36.72-20,53.78-10.37c17.06,9.63,56.15,72.44,56.15,72.44,0,0-73.97-1.03-91.03-10.66Z"/>
    <path class="cls-5" d="M1149.54,1481.54c-7.83-17.96-2.12-44.6,15.84-52.43s41.36,6.12,49.19,24.08c7.83,17.96,1.25,91.64,1.25,91.64,0,0-58.45-45.34-66.28-63.29Z"/>
    <path class="cls-19" d="M1200.98,1454.39c4.56-19.05,25.15-36.89,44.21-32.34s29.35,29.78,24.79,48.84c-4.56,19.05-54.15,73.94-54.15,73.94,0,0-19.4-71.39-14.84-90.44Z"/>
    <path class="cls-5" d="M1127.38,1520.77c-19.42,2.57-39.28,21.23-36.71,40.65,2.57,19.42,26.61,32.25,46.03,29.68,19.42-2.57,79.11-46.27,79.11-46.27,0,0-69.01-26.63-88.43-24.06Z"/>
    <path class="cls-19" d="M1130.71,1578.84c-13.96,13.74-18.6,40.59-4.85,54.55,13.74,13.96,40.66,9.75,54.62-4,13.96-13.74,35.34-84.56,35.34-84.56,0,0-71.15,20.26-85.11,34.01Z"/>
    <path class="cls-12" d="M1231.26,1553.55s74.72,62.88,158.98,89.76"/>
    <path class="cls-22" d="M1345.64,1575.83s11.85,15.35,16.21,31.02,3.47,24.65-.42,25.73c-3.89,1.08-9.29-6.14-13.65-21.81s-2.14-34.93-2.14-34.93Z"/>
    <path class="cls-22" d="M1281.09,1640.04s15.35-11.85,31.02-16.21c15.67-4.36,24.65-3.47,25.73.42,1.08,3.89-6.14,9.29-21.81,13.65s-34.93,2.14-34.93,2.14Z"/>
    <path class="cls-22" d="M1285.61,1531.25s5.05,18.72,3.05,34.86c-1.99,16.14-6.27,24.09-10.27,23.59s-6.22-9.24-4.22-25.38c1.99-16.14,11.44-33.07,11.44-33.07Z"/>
    <path class="cls-22" d="M1219.15,1614.02s9.67-16.81,22.49-26.81c12.82-10.01,21.47-12.6,23.95-9.42,2.48,3.18-2.14,10.93-14.96,20.94-12.82,10.01-31.48,15.3-31.48,15.3Z"/>
  </g>
  <g>
    <ellipse class="cls-22" cx="1114.86" cy="1131.29" rx="24" ry="20.34" transform="translate(-473.04 1167.69) rotate(-46.73)"/>
    <path class="cls-15" d="M1207.35,1169.64c14.27,13.43,19.5,40.17,6.08,54.43-13.43,14.27-40.43,10.65-54.7-2.77s-37.22-83.75-37.22-83.75c0,0,71.58,18.66,85.85,32.09Z"/>
    <path class="cls-5" d="M1170.75,1214.84c3.31,19.31-8.6,43.82-27.91,47.13-19.31,3.31-38.7-15.82-42.02-35.13-3.31-19.31,20.67-89.29,20.67-89.29,0,0,45.94,57.98,49.25,77.29Z"/>
    <path class="cls-19" d="M1114.32,1228.92c-8.97,17.41-33.23,29.82-50.65,20.84-17.41-8.97-21.39-35.93-12.41-53.34,8.97-17.41,70.25-58.87,70.25-58.87,0,0,1.79,73.95-7.18,91.37Z"/>
    <path class="cls-5" d="M1201.63,1182.04c19.47,2.14,43.22-11.23,45.35-30.7s-18.14-37.68-37.61-39.81c-19.47-2.14-87.87,26.04-87.87,26.04,0,0,60.66,42.35,80.13,44.48Z"/>
    <path class="cls-19" d="M1212.27,1124.85c16.84-10.01,27.75-34.98,17.74-51.82s-37.16-19.17-54-9.16c-16.84,10.01-54.51,73.68-54.51,73.68,0,0,73.93-2.69,90.77-12.7Z"/>
    <path class="cls-12" d="M1108.59,1125.4s-57.54-78.91-132.95-125.13"/>
    <path class="cls-22" d="M1002.84,1076.44s-7.84-17.73-8.34-33.99c-.49-16.26,2.52-24.76,6.55-24.89,4.03-.12,7.55,8.19,8.05,24.44.49,16.26-6.26,34.43-6.26,34.43Z"/>
    <path class="cls-22" d="M1080.86,1029.51s-17.73,7.84-33.99,8.34c-16.26.49-24.76-2.52-24.89-6.55-.12-4.03,8.19-7.55,24.44-8.05,16.26-.49,34.43,6.26,34.43,6.26Z"/>
    <path class="cls-22" d="M1050.49,1134.07s-.43-19.39,5.36-34.58c5.79-15.2,11.84-21.89,15.61-20.46,3.77,1.44,3.83,10.46-1.96,25.66-5.79,15.2-19.01,29.38-19.01,29.38Z"/>
    <path class="cls-22" d="M1134.8,1069.57s-13.4,14.01-28.25,20.66-23.85,7.11-25.5,3.43,4.69-10.1,19.53-16.76,34.22-7.34,34.22-7.34Z"/>
  </g>
  <g>
    <ellipse class="cls-22" cx="631.79" cy="364.73" rx="20.34" ry="24" transform="translate(-21.57 689.25) rotate(-56.41)"/>
    <path class="cls-15" d="M609.54,462.36c-10.84,16.32-36.32,25.98-52.64,15.14-16.32-10.84-17.3-38.07-6.46-54.39,10.84-16.32,76.3-50.77,76.3-50.77,0,0-6.37,73.7-17.2,90.02Z"/>
    <path class="cls-5" d="M558.83,433.88c-18.48,6.51-44.64-1.11-51.15-19.59-6.51-18.48,9.09-40.81,27.57-47.32,18.48-6.51,91.49,5.37,91.49,5.37,0,0-49.44,55.03-67.92,61.54Z"/>
    <path class="cls-19" d="M535.47,380.61c-18.67-5.92-34.98-27.75-29.06-46.42s31.83-27.12,50.5-21.2c18.67,5.92,69.84,59.35,69.84,59.35,0,0-72.6,14.2-91.27,8.28Z"/>
    <path class="cls-5" d="M596.36,458.8c1.17,19.56,18.34,40.71,37.89,39.55,19.56-1.17,34.09-24.21,32.93-43.77-1.17-19.56-40.44-82.25-40.44-82.25,0,0-31.55,66.91-30.38,86.47Z"/>
    <path class="cls-19" d="M654.51,459.68c12.7,14.92,39.15,21.48,54.06,8.78,14.92-12.7,12.66-39.85-.04-54.77-12.7-14.92-81.79-41.35-81.79-41.35,0,0,15.07,72.42,27.77,87.34Z"/>
    <path class="cls-12" d="M636.55,357.56s68.12-69.98,101.01-152.09"/>
    <path class="cls-22" d="M667.04,245.09s16.16-10.71,32.11-13.93c15.94-3.22,24.83-1.68,25.63,2.28.8,3.95-6.8,8.82-22.74,12.04s-35-.39-35-.39Z"/>
    <path class="cls-22" d="M726.42,314.12s-10.71-16.16-13.93-32.11c-3.22-15.94-1.68-24.83,2.28-25.63,3.95-.8,8.82,6.8,12.04,22.74,3.22,15.94-.39,35-.39,35Z"/>
    <path class="cls-22" d="M618.24,301.75s19.04-3.68,34.99-.53c15.96,3.15,23.57,7.99,22.79,11.95-.78,3.96-9.67,5.53-25.62,2.38-15.96-3.15-32.16-13.8-32.16-13.8Z"/>
    <path class="cls-22" d="M695.99,374.01s-16.06-10.86-25.12-24.37c-9.05-13.51-11.02-22.32-7.67-24.57,3.35-2.24,10.75,2.92,19.8,16.44,9.05,13.51,12.98,32.5,12.98,32.5Z"/>
  </g>
  <g>
    <line class="cls-11" x1="2629.22" y1="1547.59" x2="2629.22" y2="1228.32"/>
    <line class="cls-11" x1="2629.22" y1="1354.45" x2="2682.1" y2="1301.58"/>
    <line class="cls-11" x1="2629.22" y1="1410.48" x2="2574.42" y2="1355.68"/>
    <g>
      <path class="cls-27" d="M2629.22,1146.83v162.98s34-36.48,34-81.49-34-81.49-34-81.49Z"/>
      <path class="cls-1" d="M2595.22,1228.32c0,45.01,34,81.49,34,81.49v-162.98s-34,36.48-34,81.49Z"/>
    </g>
    <g>
      <path class="cls-27" d="M2811.56,1172.56l-148.34,148.34s64.15-2.26,105.12-43.22c40.96-40.96,43.22-105.11,43.22-105.11Z"/>
      <path class="cls-1" d="M2706.45,1215.78c-40.96,40.96-43.22,105.11-43.22,105.11l148.34-148.34s-64.15,2.26-105.11,43.22Z"/>
    </g>
    <g>
      <path class="cls-27" d="M2585.96,1367.22l-171.04-171.04s2.61,73.97,49.84,121.2c47.23,47.23,121.2,49.84,121.2,49.84Z"/>
      <path class="cls-1" d="M2536.12,1246.02c-47.23-47.23-121.2-49.84-121.2-49.84l171.04,171.04s-2.61-73.97-49.84-121.2Z"/>
    </g>
    <line class="cls-11" x1="2629.22" y1="1456.53" x2="2655.44" y2="1430.32"/>
  </g>
  <g>
    <g>
      <path class="cls-24" d="M2864.03,1129.7c0,8,1.18,15.72,3.38,23,5.25,17.4-.15,36.17-13.2,48.82-25.53,24.74-40.82,59.98-38.92,98.76,3.23,66.03,57.3,119.46,123.37,121.97,1.68.06,3.34.06,5.01.06v-372.22c-43.98,0-79.63,35.63-79.63,79.61Z"/>
      <path class="cls-29" d="M3032.25,1200.7c-12.89-12.27-17.46-30.98-12.33-48.02,2.74-9.08,3.89-18.85,3.15-28.99-2.89-39.24-34.88-70.92-74.14-73.44-1.77-.11-3.52-.15-5.27-.15v372.22c70.98,0,128.53-57.51,128.53-128.5,0-36.65-15.34-69.71-39.94-93.12Z"/>
    </g>
    <g>
      <line class="cls-11" x1="2943.66" y1="1211.81" x2="2943.66" y2="1547.59"/>
      <line class="cls-11" x1="2943.66" y1="1320.9" x2="2989.93" y2="1274.63"/>
      <line class="cls-11" x1="2943.66" y1="1253.34" x2="2915.75" y2="1225.43"/>
    </g>
  </g>
  <g>
    <g>
      <path class="cls-24" d="M3055.42,1257.71c0,6.18.91,12.15,2.61,17.78,4.06,13.45-.12,27.96-10.2,37.74-19.73,19.12-31.55,46.36-30.08,76.33,2.5,51.04,44.29,92.34,95.35,94.28,1.3.05,2.58.05,3.87.05v-287.7c-33.99,0-61.55,27.54-61.55,61.53Z"/>
      <path class="cls-29" d="M3185.45,1312.58c-9.96-9.48-13.5-23.95-9.53-37.12,2.11-7.02,3.01-14.57,2.43-22.41-2.23-30.33-26.96-54.81-57.31-56.76-1.37-.09-2.72-.12-4.07-.12v287.7c54.86,0,99.35-44.45,99.35-99.32,0-28.32-11.85-53.88-30.87-71.98Z"/>
    </g>
    <g>
      <line class="cls-11" x1="3116.97" y1="1315.98" x2="3116.97" y2="1651.77"/>
      <line class="cls-11" x1="3116.97" y1="1434.55" x2="3163.24" y2="1388.27"/>
      <line class="cls-11" x1="3113.9" y1="1393.65" x2="3085.99" y2="1365.74"/>
    </g>
  </g>
  <g>
    <path class="cls-8" d="M2637.32,1532.33c-97.3,0-179.36,65.26-204.8,154.4h409.61c-25.44-89.14-107.5-154.4-204.8-154.4Z"/>
    <path class="cls-8" d="M2929.86,1466.18c-138.99,0-256.2,93.22-292.54,220.54h585.08c-36.34-127.32-153.55-220.54-292.54-220.54Z"/>
  </g>
  <g>
    <path class="cls-29" d="M656.91,602.17c-42.54,0-78.41,28.53-89.53,67.49h179.06c-11.12-38.97-46.99-67.49-89.53-67.49Z"/>
    <path class="cls-29" d="M901.16,602.17c-42.54,0-78.41,28.53-89.53,67.49h179.06c-11.12-38.97-46.99-67.49-89.53-67.49Z"/>
    <path class="cls-29" d="M784.79,573.26c-60.76,0-112,40.75-127.88,96.41h255.77c-15.89-55.66-67.12-96.41-127.88-96.41Z"/>
  </g>
  <path class="cls-8" d="M2495.58,866.94c16.53,0,29.93-13.4,29.93-29.93,0,16.53,13.4,29.93,29.93,29.93-16.53,0-29.93,13.4-29.93,29.93,0-16.53-13.4-29.93-29.93-29.93Z"/>
  <path class="cls-8" d="M1009.61,1388.78c16.53,0,29.93-13.4,29.93-29.93,0,16.53,13.4,29.93,29.93,29.93-16.53,0-29.93,13.4-29.93,29.93,0-16.53-13.4-29.93-29.93-29.93Z"/>
  <path class="cls-8" d="M944.06,734.66c16.53,0,29.93-13.4,29.93-29.93,0,16.53,13.4,29.93,29.93,29.93-16.53,0-29.93,13.4-29.93,29.93,0-16.53-13.4-29.93-29.93-29.93Z"/>
  <path class="cls-8" d="M2556.05,950.63c9.22,0,16.7-7.48,16.7-16.7,0,9.22,7.48,16.7,16.7,16.7-9.22,0-16.7,7.48-16.7,16.7,0-9.22-7.48-16.7-16.7-16.7Z"/>
  <path class="cls-8" d="M344.95,1426.41c9.22,0,16.7-7.48,16.7-16.7,0,9.22,7.48,16.7,16.7,16.7-9.22,0-16.7,7.48-16.7,16.7,0-9.22-7.48-16.7-16.7-16.7Z"/>
  <path class="cls-8" d="M973.99,1466.95c9.22,0,16.7-7.48,16.7-16.7,0,9.22,7.48,16.7,16.7,16.7-9.22,0-16.7,7.48-16.7,16.7,0-9.22-7.48-16.7-16.7-16.7Z"/>
  <path class="cls-8" d="M3173.66,1161.67c9.22,0,16.7-7.48,16.7-16.7,0,9.22,7.48,16.7,16.7,16.7-9.22,0-16.7,7.48-16.7,16.7,0-9.22-7.48-16.7-16.7-16.7Z"/>
</svg>