<svg width="1200" height="630" viewBox="0 0 1200 630" fill="none" xmlns="http://www.w3.org/2000/svg">
  <!-- Background gradient matching app theme -->
  <defs>
    <linearGradient id="splashBg" x1="0%" y1="0%" x2="100%" y2="100%">
      <stop offset="0%" style="stop-color:#1e293b;stop-opacity:1" />
      <stop offset="50%" style="stop-color:#334155;stop-opacity:1" />
      <stop offset="100%" style="stop-color:#1e293b;stop-opacity:1" />
    </linearGradient>
    <linearGradient id="accentGradient" x1="0%" y1="0%" x2="100%" y2="100%">
      <stop offset="0%" style="stop-color:#3b82f6;stop-opacity:0.2" />
      <stop offset="100%" style="stop-color:#8b5cf6;stop-opacity:0.2" />
    </linearGradient>
    <linearGradient id="iconGradient" x1="0%" y1="0%" x2="100%" y2="100%">
      <stop offset="0%" style="stop-color:#2563eb;stop-opacity:1" />
      <stop offset="100%" style="stop-color:#7c3aed;stop-opacity:1" />
    </linearGradient>
  </defs>
  
  <!-- Main background -->
  <rect width="1200" height="630" fill="url(#splashBg)"/>
  
  <!-- Decorative circles -->
  <circle cx="100" cy="100" r="150" fill="url(#accentGradient)" opacity="0.3"/>
  <circle cx="1100" cy="530" r="200" fill="url(#accentGradient)" opacity="0.3"/>
  <circle cx="600" cy="315" r="250" fill="url(#accentGradient)" opacity="0.15"/>
  
  <!-- Grid pattern overlay -->
  <pattern id="grid" width="40" height="40" patternUnits="userSpaceOnUse">
    <path d="M 40 0 L 0 0 0 40" fill="none" stroke="#475569" stroke-width="0.5" opacity="0.2"/>
  </pattern>
  <rect width="1200" height="630" fill="url(#grid)"/>
  
  <!-- Central icon area with glow -->
  <circle cx="600" cy="315" r="140" fill="url(#iconGradient)" opacity="0.1"/>
  <circle cx="600" cy="315" r="120" fill="url(#iconGradient)" opacity="0.15"/>
  
  <!-- Document icons floating in background -->
  <g opacity="0.15">
    <!-- Left document -->
    <rect x="150" y="200" width="80" height="100" rx="8" fill="#3b82f6"/>
    <rect x="165" y="220" width="50" height="4" rx="2" fill="#1e293b"/>
    <rect x="165" y="235" width="50" height="4" rx="2" fill="#1e293b"/>
    <rect x="165" y="250" width="35" height="4" rx="2" fill="#1e293b"/>
    
    <!-- Right document -->
    <rect x="970" y="350" width="80" height="100" rx="8" fill="#8b5cf6"/>
    <rect x="985" y="370" width="50" height="4" rx="2" fill="#1e293b"/>
    <rect x="985" y="385" width="50" height="4" rx="2" fill="#1e293b"/>
    <rect x="985" y="400" width="35" height="4" rx="2" fill="#1e293b"/>
    
    <!-- Top right document -->
    <rect x="900" y="80" width="80" height="100" rx="8" fill="#10b981"/>
    <rect x="915" y="100" width="50" height="4" rx="2" fill="#1e293b"/>
    <rect x="915" y="115" width="50" height="4" rx="2" fill="#1e293b"/>
    <rect x="915" y="130" width="35" height="4" rx="2" fill="#1e293b"/>
  </g>
  
  <!-- Subtle shine effect -->
  <rect x="0" y="0" width="1200" height="315" fill="url(#accentGradient)" opacity="0.05"/>
</svg>
